HIERARCHY
ROOT SpineBase
{
  OFFSET 0.000000 0.000000 0.000000
  CHANNELS 6 Xposition Yposition Zposition Zrotation Xrotation Yrotation
  JOINT SpineMid
  {
    OFFSET 0.000000 34.510370 -0.000000
    CHANNELS 3 Zrotation Xrotation Yrotation
    JOINT SpineShoulder
    {
      OFFSET -0.447065 25.658318 -0.510615
      CHANNELS 3 Zrotation Xrotation Yrotation
      JOINT Neck
      {
        OFFSET -0.290720 8.398995 -0.462149
        CHANNELS 3 Zrotation Xrotation Yrotation
        JOINT Head
        {
          OFFSET -6.167948 11.549165 2.152728
          CHANNELS 3 Zrotation Xrotation Yrotation
          End Site
          {
            OFFSET 0 0 0
          }
        }
      }
      JOINT ShoulderLeft
      {
        OFFSET -6.381521 -9.346314 -6.503697
        CHANNELS 3 Zrotation Xrotation Yrotation
        JOINT ElbowLeft
        {
          OFFSET -15.659846 -17.872116 17.874304
          CHANNELS 3 Zrotation Xrotation Yrotation
          JOINT WristLeft
          {
            OFFSET -4.279984 4.096465 -14.927872
            CHANNELS 3 Zrotation Xrotation Yrotation
            JOINT HandLeft
            {
              OFFSET 0.008449 -1.562195 -1.423663
              CHANNELS 3 Zrotation Xrotation Yrotation
              JOINT HandTipLeft
              {
                OFFSET 2.739703 -1.522710 -3.639208
                CHANNELS 3 Zrotation Xrotation Yrotation
                End Site
                {
                  OFFSET 0 0 0
                }
              }
              JOINT ThumbLeft
              {
                OFFSET 5.508207 -0.708329 -4.138127
                CHANNELS 3 Zrotation Xrotation Yrotation
                End Site
                {
                  OFFSET 0 0 0
                }
              }
            }
          }
        }
      }
      JOINT ShoulderRight
      {
        OFFSET 2.752296 -5.919137 -12.776549
        CHANNELS 3 Zrotation Xrotation Yrotation
        JOINT ElbowRight
        {
          OFFSET -2.163746 -22.357866 -7.592532
          CHANNELS 3 Zrotation Xrotation Yrotation
          JOINT WristRight
          {
            OFFSET -20.194197 1.470242 10.763016
            CHANNELS 3 Zrotation Xrotation Yrotation
            JOINT HandRight
            {
              OFFSET -5.640029 1.804207 2.728001
              CHANNELS 3 Zrotation Xrotation Yrotation
              JOINT HandTipRight
              {
                OFFSET -7.394872 1.264833 2.153477
                CHANNELS 3 Zrotation Xrotation Yrotation
                End Site
                {
                  OFFSET 0 0 0
                }
              }
              JOINT ThumbRight
              {
                OFFSET 1.723717 3.073768 -0.795550
                CHANNELS 3 Zrotation Xrotation Yrotation
                End Site
                {
                  OFFSET 0 0 0
                }
              }
            }
          }
        }
      }
    }
  }
  JOINT HipLeft
  {
    OFFSET -5.198387 -0.763272 0.266233
    CHANNELS 3 Zrotation Xrotation Yrotation
    JOINT KneeLeft
    {
      OFFSET 12.545273 -33.703327 17.960453
      CHANNELS 3 Zrotation Xrotation Yrotation
      JOINT AnkleLeft
      {
        OFFSET 2.867155 -40.128775 1.724892
        CHANNELS 3 Zrotation Xrotation Yrotation
        JOINT FootLeft
        {
          OFFSET -1.850370 -5.117799 2.441220
          CHANNELS 3 Zrotation Xrotation Yrotation
          End Site
          {
            OFFSET 0 0 0
          }
        }
      }
    }
  }
  JOINT HipRight
  {
    OFFSET 4.994969 1.132987 -7.302027
    CHANNELS 3 Zrotation Xrotation Yrotation
    JOINT KneeRight
    {
      OFFSET 4.068780 -42.165809 2.320154
      CHANNELS 3 Zrotation Xrotation Yrotation
      JOINT AnkleRight
      {
        OFFSET 8.866109 -31.948532 2.326103
        CHANNELS 3 Zrotation Xrotation Yrotation
        JOINT FootRight
        {
          OFFSET -5.338520 -4.178709 -10.290453
          CHANNELS 3 Zrotation Xrotation Yrotation
          End Site
          {
            OFFSET 0 0 0
          }
        }
      }
    }
  }
}
MOTION
Frames: 13
Frame Time: 0.033333
4.512977 83.665840 355.074739 7.168175 2.312726 42.262013 -0.938865 1.061197 -42.278491 -0.741173 0.052661 0.187455 1.860317 16.637821 7.240897 0.000000 0.000000 0.000000 -15.833494 43.582717 -67.077073 3.327552 -7.362212 98.503554 -50.669804 27.877032 19.717271 51.636483 15.470053 65.539101 0.000000 0.000000 0.000000 0.000000 0.000000 0.000000 -37.006091 -5.509285 8.494242 -6.866170 -7.371287 -34.982881 -36.889588 -21.522113 -17.629910 18.211713 29.301800 -1.209379 0.000000 0.000000 0.000000 0.000000 0.000000 0.000000 3.439644 1.201146 -35.824016 -7.354846 -5.137595 -6.911341 -40.897455 27.811171 -18.813558 0.000000 0.000000 0.000000 -11.300182 10.398509 -41.909360 8.973626 2.357393 1.776121 21.336751 -40.659938 6.227807 0.000000 0.000000 0.000000
4.994216 84.337896 356.096431 7.693423 3.134162 42.840743 -0.807863 1.047633 -42.908723 -0.797278 -0.163401 0.217156 -1.196552 16.268158 8.146113 0.000000 0.000000 0.000000 -20.497104 37.604724 -59.065012 -2.966784 -2.354080 92.829088 -45.915677 32.735405 18.724858 57.670009 29.609564 64.583917 0.000000 0.000000 0.000000 0.000000 0.000000 0.000000 -40.419737 -6.237260 8.764460 0.359123 -7.030096 -36.346484 -37.609065 -23.311031 -17.526581 20.067045 30.446186 -5.437896 0.000000 0.000000 0.000000 0.000000 0.000000 0.000000 3.366016 3.023943 -36.204758 -6.434278 -7.823310 -7.374052 -44.218747 30.911976 -19.082116 0.000000 0.000000 0.000000 -12.132398 10.685653 -42.531978 8.936267 2.796082 1.974614 16.504744 -32.763917 -13.702822 0.000000 0.000000 0.000000
4.971740 85.023099 356.984361 7.682351 4.236900 44.389240 -0.699313 0.824315 -44.507993 -0.858547 -0.325506 0.231934 -2.572756 15.553192 8.555714 0.000000 0.000000 0.000000 -19.962746 31.480086 -51.471423 -9.180856 0.944980 86.673998 -33.824566 47.668576 16.475376 52.233709 26.544095 66.160091 0.000000 0.000000 0.000000 0.000000 0.000000 0.000000 -44.282167 -6.433568 9.256259 11.725328 -7.195432 -40.390005 -35.313800 -28.920126 -9.031097 17.569802 25.953914 -6.727696 0.000000 0.000000 0.000000 0.000000 0.000000 0.000000 3.033685 5.029687 -38.000202 -4.374838 -11.138723 -7.261880 -49.731331 40.467777 -19.161752 0.000000 0.000000 0.000000 -12.175777 9.863572 -44.269560 8.128314 3.527985 2.122817 14.977696 -25.796384 -25.428339 0.000000 0.000000 0.000000
4.875193 85.402285 357.989220 7.682823 4.895785 42.061003 -0.535831 0.983043 -42.231461 -0.910379 -0.406773 0.237573 -2.675596 14.719896 8.582292 0.000000 0.000000 0.000000 -13.609178 26.039657 -42.519207 -19.205548 3.143095 77.522653 -21.164927 49.880183 6.638860 74.294158 36.273902 49.640589 0.000000 0.000000 0.000000 0.000000 0.000000 0.000000 -47.913274 -5.681820 9.926103 24.355331 -9.025136 -45.021641 -30.219498 -37.180431 14.655962 16.725921 20.827070 -20.739362 0.000000 0.000000 0.000000 0.000000 0.000000 0.000000 2.034526 6.661971 -36.158126 -2.226406 -13.627484 -6.678283 -58.366872 51.382806 -17.303464 0.000000 0.000000 0.000000 -11.902874 9.477972 -42.020839 7.481768 3.100088 2.249089 14.851299 -21.925546 -31.181057 0.000000 0.000000 0.000000
5.016954 85.413149 359.045294 7.917219 5.380258 35.676816 -0.659020 1.110285 -35.897307 -0.971227 -0.324539 0.239550 -3.740707 15.255077 9.465440 0.000000 0.000000 0.000000 -18.889091 19.246917 -37.771752 -21.801052 11.014923 82.771812 -13.819446 47.019682 -2.702597 58.087287 38.113126 59.658883 0.000000 0.000000 0.000000 0.000000 0.000000 0.000000 -51.361627 -5.448493 10.459868 37.333303 -11.042126 -46.036390 -21.262038 -32.164119 36.982553 6.469074 13.506311 -36.218653 0.000000 0.000000 0.000000 0.000000 0.000000 0.000000 0.261890 8.227486 -30.196137 -0.349872 -15.674809 -6.072280 -69.022320 54.530358 -14.287050 0.000000 0.000000 0.000000 -12.169733 9.516760 -35.640199 7.295569 1.829251 2.382104 14.960703 -20.859237 -33.034946 0.000000 0.000000 0.000000
5.233231 85.188557 359.954112 8.146389 5.789240 26.068121 -0.838064 1.139691 -26.332652 -1.011943 -0.174517 0.243144 -4.977124 16.163631 10.556062 0.000000 0.000000 0.000000 -20.836304 12.612404 -32.570369 -26.521458 18.031595 85.959318 -12.715812 44.356723 -7.291975 50.657686 39.624678 67.304070 0.000000 0.000000 0.000000 0.000000 0.000000 0.000000 -54.847710 -7.331726 10.283544 49.141527 -11.080724 -44.659247 -16.256916 -17.849132 46.078591 -8.916789 5.632977 -43.884109 0.000000 0.000000 0.000000 0.000000 0.000000 0.000000 -2.386185 8.517988 -21.017674 1.038045 -16.509454 -5.386333 -71.789357 54.558709 -13.139163 0.000000 0.000000 0.000000 -13.189753 9.280755 -26.022943 7.388596 0.244437 2.512911 14.947162 -22.147946 -31.578857 0.000000 0.000000 0.000000
5.520387 84.816032 360.835194 8.366142 6.210857 13.299308 -1.079421 0.908720 -13.599188 -1.057917 -0.027844 0.246314 -7.451344 17.248230 12.061142 0.000000 0.000000 0.000000 -25.262675 5.379442 -29.268889 -30.037165 25.025892 95.429556 -31.348415 44.576698 -1.121237 59.572171 38.167062 74.951211 0.000000 0.000000 0.000000 0.000000 0.000000 0.000000 -58.609504 -9.343650 10.043693 56.707091 -10.924003 -43.636832 -10.923327 -3.391586 45.858798 -24.981092 -1.926767 -28.015929 0.000000 0.000000 0.000000 0.000000 0.000000 0.000000 -4.469642 6.461010 -8.381953 0.781994 -15.786818 -5.248795 -69.836277 50.148807 -14.381782 0.000000 0.000000 0.000000 -14.998419 8.398063 -13.293823 7.629186 -1.618134 2.653149 15.013087 -25.977810 -26.744241 0.000000 0.000000 0.000000
5.849986 84.324095 361.596410 8.569080 6.527930 -0.326645 -1.224154 0.509086 0.003585 -1.089511 0.147876 0.249228 -11.776410 17.682901 13.782119 0.000000 0.000000 0.000000 -29.135746 -1.115451 -26.935775 -33.950561 30.543309 105.810695 -46.536760 42.778490 0.909193 62.137639 29.320430 81.944909 0.000000 0.000000 0.000000 0.000000 0.000000 0.000000 -62.234049 -11.154817 9.795422 61.595175 -10.492465 -40.411654 -5.005286 4.852494 37.287274 -28.464974 -6.532389 -23.468188 0.000000 0.000000 0.000000 0.000000 0.000000 0.000000 -6.335952 4.127782 4.740009 1.458157 -15.554289 -4.719458 -75.328653 45.374606 -14.732435 0.000000 0.000000 0.000000 -17.333599 6.885695 0.183566 8.127186 -3.540276 2.817216 15.705952 -32.327071 -17.109912 0.000000 0.000000 0.000000
6.182396 83.771697 362.137849 8.756435 6.425991 -11.628593 -1.205195 0.019872 11.318088 -1.121334 0.345195 0.246545 -16.353188 20.893626 17.197936 0.000000 0.000000 0.000000 -32.325240 -6.863703 -24.704190 -37.668058 35.084420 116.138200 -63.291798 40.399678 2.298761 77.599290 23.537088 77.071976 0.000000 0.000000 0.000000 0.000000 0.000000 0.000000 -64.908137 -13.666484 9.320218 62.456877 -8.939405 -38.298152 1.014915 7.438462 26.941748 -26.814369 -8.558230 -15.990610 0.000000 0.000000 0.000000 0.000000 0.000000 0.000000 -7.067373 1.840591 15.526859 1.658950 -14.612410 -4.308151 -75.103482 38.808136 -16.589838 0.000000 0.000000 0.000000 -19.590490 5.297347 11.294055 8.859007 -4.978081 3.055183 21.122353 -43.895748 3.391378 0.000000 0.000000 0.000000
6.529941 83.364914 362.623677 8.926399 6.701585 -19.356391 -1.054765 -0.217377 19.033230 -1.128288 0.252746 0.258141 -18.985076 22.185805 18.949127 0.000000 0.000000 0.000000 -36.859418 -12.558114 -24.205637 -40.478702 39.156249 126.755850 -80.357881 36.220837 1.389830 94.100910 20.742606 66.653990 0.000000 0.000000 0.000000 0.000000 0.000000 0.000000 -66.966256 -17.425454 7.829209 59.989365 -6.013162 -36.408809 4.753809 5.767459 16.053888 -14.027935 -6.727122 -14.035480 0.000000 0.000000 0.000000 0.000000 0.000000 0.000000 -7.066616 -0.299144 22.762938 1.417684 -13.211482 -4.039630 -69.735456 29.041414 -19.041995 0.000000 0.000000 0.000000 -21.421717 3.662863 18.662272 9.782043 -6.137059 3.341680 21.337394 -44.840578 8.994131 0.000000 0.000000 0.000000
6.932819 83.159994 363.120097 9.202997 6.781358 -21.931412 -0.996281 -0.241373 21.595216 -1.082196 0.140054 0.277929 -20.932751 23.739657 20.576644 0.000000 0.000000 0.000000 -34.931028 -17.295483 -19.356278 -47.571455 43.058031 130.542707 -74.191925 40.109662 -1.819485 94.002816 15.887418 65.709187 0.000000 0.000000 0.000000 0.000000 0.000000 0.000000 -72.554153 -17.893968 8.369266 63.832051 -7.821925 -35.233026 7.558002 6.111903 11.003099 -13.386753 -6.661231 -10.672441 0.000000 0.000000 0.000000 0.000000 0.000000 0.000000 -7.462296 -0.884335 25.121358 1.217836 -12.721943 -3.983765 -64.056127 31.039510 -18.495657 0.000000 0.000000 0.000000 -23.160528 3.238834 21.030500 11.041244 -7.143708 3.630351 18.436816 -41.859273 3.484059 0.000000 0.000000 0.000000
7.117234 83.231108 363.589184 9.327742 7.125534 -20.194263 -0.957386 -0.267673 19.833970 -1.039566 0.215893 0.287885 -21.600618 23.879100 20.967913 0.000000 0.000000 0.000000 -27.726773 -18.959789 -12.270699 -55.183292 45.549295 128.459423 -51.018340 48.511494 -6.193995 86.527471 8.970657 71.921674 0.000000 0.000000 0.000000 0.000000 0.000000 0.000000 -73.777731 -19.430351 7.356158 61.780093 -6.778785 -34.144295 13.442607 5.670421 0.051696 -18.638942 -7.910417 -1.680807 0.000000 0.000000 0.000000 0.000000 0.000000 0.000000 -8.106686 -0.441437 23.375014 1.574238 -13.305088 -4.000603 -64.478232 21.783181 -20.063443 0.000000 0.000000 0.000000 -23.887374 3.685086 19.231844 11.966521 -7.483023 3.837676 13.602479 -32.862789 -10.307008 0.000000 0.000000 0.000000
7.043194 83.533806 363.913461 9.253871 7.582169 -15.870615 -0.902095 -0.279555 15.490956 -0.980834 0.262200 0.295541 -20.100274 23.731664 20.337287 0.000000 0.000000 0.000000 -23.273149 -20.491201 -7.455005 -59.670559 48.382533 127.371171 -15.132414 50.236733 -22.283937 76.930960 8.344391 73.064935 0.000000 0.000000 0.000000 0.000000 0.000000 0.000000 -71.530960 -20.611278 6.085304 56.911690 -4.625428 -34.035412 13.224354 5.287392 -0.950825 -16.362079 -6.563522 -1.643277 0.000000 0.000000 0.000000 0.000000 0.000000 0.000000 -8.556523 0.866355 19.335802 1.820747 -14.508129 -4.236275 -63.747970 22.077453 -19.928299 0.000000 0.000000 0.000000 -23.687919 4.804069 15.017742 12.648362 -7.401398 3.980206 10.985492 -25.140292 -17.330225 0.000000 0.000000 0.000000
